# xmcd CD database file
#
# Track frame offsets:
#	150
#	23082
#	46112
#	71917
#	95030
#	123707
#	146635
#	171777
#	199507
#	221677
#
# Disc length: 3271 seconds
#
# Revision: 1
# Processed by: cddbd v1.5PL3 Copyright (c) Steve Scherf et al.
# Submitted via: CDex 1.50Beta7
#
DISCID=950cc50a
DTITLE=Yosuke Onuma - Jazz'n'Pop
DYEAR=1900
DGENRE=Jazz
TTITLE0=Three Roses
TTITLE1=Afro-Runner
TTITLE2=Free
TTITLE3=Off Shore
TTITLE4=Punk Jazz
TTITLE5=Workin'Day And Night
TTITLE6=Mask
TTITLE7=Funky J
TTITLE8=Doze...
TTITLE9=Discotheque
EXTD=
EXTT0=
EXTT1=
EXTT2=
EXTT3=
EXTT4=
EXTT5=
EXTT6=
EXTT7=
EXTT8=
EXTT9=
PLAYORDER=
